<svg xmlns="http://www.w3.org/2000/svg" viewBox="0 0 512 512" width="512" height="512"><path d="M415 56.8c1.326 1.053 2.576 2.25 3.891 3.334l.009-.035c-1.2-1.199-2.401-2.399-3.9-3.299z" fill="#ff7cb9"/><path d="M512 261.4c-.3 10.499-1.199 20.7-2.701 30.899l-74.2 76.501-75.298 120c-9.3 4.199-19.2 8.099-29.401 11.1L256 429.699l-16.199-15.3L124 474.099c-10.8-6.599-21.3-13.799-30.9-21.9L64.6 316.3.901 232.299c1.199-10.199 2.699-20.1 4.799-30L112.899 128.5l22.8-97.2c9.3-5.101 19.2-9.6 29.101-13.2L256 45.7l36 11.1 126.899 3.3c8.699 7.2 17.401 15 24.901 23.701L442.599 191.2 512 261.4z" fill="#fa5e97"/><path d="M512 261.4c-.3 10.499-1.199 20.7-2.701 30.899l-74.2 76.501-75.298 120c-9.3 4.199-19.2 8.099-29.401 11.1L256 429.699v-384l36 11.1 126.899 3.3c8.699 7.2 17.401 15 24.901 23.701l-1.201 107.399L512 261.4z" fill="#d94f88"/><path d="M176.201 197.8c24.598-4.801 48.6-11.4 71.398-18.6C217.301 123.699 179.801 73.599 135.7 31.3 70.901 66.099 21.599 128.2 5.7 202.299c47.701 9.6 106.601 8.401 170.501-4.499zM418.9 60.099l-4.2 16.5c-6.599 26.4-62.399 64.2-135.599 91.501l-3.301 1.199c-6.299-11.7-12.9-23.401-19.799-34.501C230.2 92.199 199.3 52.899 164.801 18.1 193.001 7 223.9 0 256 0c57.299 0 110.7 20.2 153.3 52.299 3.299 2.4 6.601 4.801 9.6 7.8zM287.5 268.299c-10.8 3.9-21.299 8.101-31.5 12.9C168.999 320.2 104.2 385 93.999 446.8c-.298 1.8-.599 3.6-.899 5.4C37 405.399 0 334.9 0 256c0-8.101.3-15.901.901-23.701C24.6 236.8 49.6 238.6 73.001 238.6c40.8 0 79.499-5.4 109.199-11.4 25.501-5.099 50.101-11.7 73.801-19.2l5.4-1.8C271 226.3 279.699 247 287.5 268.299z" fill="#ff7cb9"/><path d="M330.399 499.9C307 507.1 281.8 512 256 512c-48.3 0-93.6-14.5-132.001-37.901-1.5-7.2-1.5-14.7-.298-22.5C131.499 403.9 185.501 349.9 256 314.5c13.2-6.601 27.001-12.902 41.4-18.001 20.4 64.201 31.8 132.9 32.999 203.401z" fill="#ff7cb9"/><path d="M509.299 292.299C496.7 380.2 438.401 453.699 359.801 488.8 357.7 419.2 345.7 351.4 325.6 287.5c67.2-18.6 130.901-16.5 183.699 4.799zM512 256v5.4c-57.299-21.301-125.2-22.2-196-2.1-7.8-21.599-16.8-42.599-26.4-62.999 49.2-18.6 141.301-61.201 154.2-112.5C485.501 129.099 512 189.699 512 256z" fill="#ff637b"/><path d="M287.5 268.299c-10.8 3.9-21.299 8.101-31.5 12.9v-73.2l5.4-1.8c9.6 20.101 18.299 40.801 26.1 62.1zM297.4 296.499c20.4 64.2 31.8 132.9 32.999 203.401C307 507.1 281.8 512 256 512V314.5c13.2-6.601 27.001-12.901 41.4-18.001zM275.799 169.3c-6.299-11.7-12.9-23.401-19.799-34.501V0c57.299 0 110.7 20.2 153.3 52.299 3.3 2.401 6.601 4.801 9.6 7.8l-4.2 16.5c-6.599 26.4-62.399 64.2-135.599 91.501l-3.302 1.2zM509.299 292.299C496.7 380.2 438.401 453.699 359.801 488.8 357.7 419.2 345.7 351.4 325.6 287.5c67.2-18.6 130.901-16.5 183.699 4.799zM512 256v5.4c-57.299-21.301-125.2-22.2-196-2.1-7.8-21.599-16.8-42.599-26.4-62.999 49.2-18.6 141.301-61.201 154.2-112.5C485.501 129.099 512 189.699 512 256z" fill="#fa5e97"/></svg>