<svg xmlns="http://www.w3.org/2000/svg" style="isolation:isolate" viewBox="0 0 321 321" width="428" height="428"><defs><clipPath id="a"><path d="M0 0h321v321H0z"/></clipPath></defs><g clip-path="url(#a)"><circle vector-effect="non-scaling-stroke" cx="160.5" cy="160.5" r="160" fill="none"/><mask id="b" x="-200%" y="-200%" width="400%" height="400%"><rect x="-200%" y="-200%" width="400%" height="400%" fill="#fff"/><path d="M112.905 125.193c15.133-2.953 29.9-7.013 43.926-11.443-18.64-34.146-41.711-64.969-68.844-90.993-39.866 21.409-70.199 59.616-79.98 105.204 29.347 5.907 65.584 5.169 104.898-2.768z"/></mask><path d="M112.905 125.193c15.133-2.953 29.9-7.013 43.926-11.443-18.64-34.146-41.711-64.969-68.844-90.993-39.866 21.409-70.199 59.616-79.98 105.204 29.347 5.907 65.584 5.169 104.898-2.768z" fill="#EA4C89" mask="url(#b)" vector-effect="non-scaling-stroke" stroke-width=".8" stroke="#FFF"/><path d="M112.905 125.193c15.133-2.953 29.9-7.013 43.926-11.443-18.64-34.146-41.711-64.969-68.844-90.993-39.866 21.409-70.199 59.616-79.98 105.204 29.347 5.907 65.584 5.169 104.898-2.768z" fill="#EA4C89"/><path d="M261 42c.127-.028.476 1.927-1 7-4.679 16.075-41.645 41.602-86.68 58.399l-2.031.738c-3.875-7.199-7.936-14.398-12.181-21.227-15.873-26.208-34.884-50.387-56.109-71.796 17.349-6.829 36.36-11.136 56.109-11.136 35.252 0 68.106 12.428 94.315 32.176 2.03 1.477 6 4.558 7.577 5.846z" fill="#EA4C89" vector-effect="non-scaling-stroke" stroke-width=".4" stroke="#FFF"/><mask id="c" x="-200%" y="-200%" width="400%" height="400%"><rect x="-200%" y="-200%" width="400%" height="400%" fill="#fff"/><path d="M181.38 167.566c-6.645 2.4-13.104 4.984-19.38 7.937-53.526 23.994-93.393 63.862-99.669 101.883-.183 1.108-.368 2.215-.553 3.322C27.264 251.915 4.5 208.541 4.5 159.999c0-4.984.185-9.782.554-14.581 14.581 2.769 29.962 3.876 44.359 3.876 25.101 0 48.91-3.322 67.183-7.013 15.689-3.137 30.824-7.199 45.405-11.813l3.322-1.107a438.735 438.735 0 0 1 16.057 38.205z"/></mask><path d="M181.38 167.566c-6.645 2.4-13.104 4.984-19.38 7.937-53.526 23.994-93.393 63.862-99.669 101.883-.183 1.108-.368 2.215-.553 3.322C27.264 251.915 4.5 208.541 4.5 159.999c0-4.984.185-9.782.554-14.581 14.581 2.769 29.962 3.876 44.359 3.876 25.101 0 48.91-3.322 67.183-7.013 15.689-3.137 30.824-7.199 45.405-11.813l3.322-1.107a438.735 438.735 0 0 1 16.057 38.205z" fill="#EA4C89" mask="url(#c)" vector-effect="non-scaling-stroke" stroke-width=".8" stroke="#FFF"/><path d="M181.38 167.566c-6.645 2.4-13.104 4.984-19.38 7.937-53.526 23.994-93.393 63.862-99.669 101.883-.183 1.108-.368 2.215-.553 3.322C27.264 251.915 4.5 208.541 4.5 159.999c0-4.984.185-9.782.554-14.581 14.581 2.769 29.962 3.876 44.359 3.876 25.101 0 48.91-3.322 67.183-7.013 15.689-3.137 30.824-7.199 45.405-11.813l3.322-1.107a438.735 438.735 0 0 1 16.057 38.205z" fill="#EA4C89"/><mask id="d" x="-200%" y="-200%" width="400%" height="400%"><rect x="-200%" y="-200%" width="400%" height="400%" fill="#fff"/><path d="M206.773 308.056c-14.396 4.429-29.9 7.444-45.773 7.444-29.716 0-57.586-8.921-81.212-23.318-.922-4.43-.922-9.044-.183-13.843 4.798-29.346 38.022-62.568 81.395-84.348 8.121-4.061 16.612-7.938 25.471-11.075 12.55 39.499 19.564 81.765 20.302 125.14z"/></mask><path d="M206.773 308.056c-14.396 4.429-29.9 7.444-45.773 7.444-29.716 0-57.586-8.921-81.212-23.318-.922-4.43-.922-9.044-.183-13.843 4.798-29.346 38.022-62.568 81.395-84.348 8.121-4.061 16.612-7.938 25.471-11.075 12.55 39.499 19.564 81.765 20.302 125.14z" fill="#EA4C89" mask="url(#d)" vector-effect="non-scaling-stroke" stroke-width=".8" stroke="#FFF"/><path d="M206.773 308.056c-14.396 4.429-29.9 7.444-45.773 7.444-29.716 0-57.586-8.921-81.212-23.318-.922-4.43-.922-9.044-.183-13.843 4.798-29.346 38.022-62.568 81.395-84.348 8.121-4.061 16.612-7.938 25.471-11.075 12.55 39.499 19.564 81.765 20.302 125.14z" fill="#EA4C89"/><mask id="e" x="-200%" y="-200%" width="400%" height="400%"><rect x="-200%" y="-200%" width="400%" height="400%" fill="#fff"/><path d="M313.838 181.332c-7.751 54.08-43.619 99.299-91.976 120.895-1.293-42.821-8.675-84.534-21.042-123.847 41.344-11.443 80.535-10.151 113.018 2.952z"/></mask><path d="M313.838 181.332c-7.751 54.08-43.619 99.299-91.976 120.895-1.293-42.821-8.675-84.534-21.042-123.847 41.344-11.443 80.535-10.151 113.018 2.952z" fill="#EA4C89" mask="url(#e)" vector-effect="non-scaling-stroke" stroke-width=".8" stroke="#FFF"/><path d="M313.838 181.332c-7.751 54.08-43.619 99.299-91.976 120.895-1.293-42.821-8.675-84.534-21.042-123.847 41.344-11.443 80.535-10.151 113.018 2.952z" fill="#EA4C89"/><mask id="f" x="-200%" y="-200%" width="400%" height="400%"><rect x="-200%" y="-200%" width="400%" height="400%" fill="#fff"/><path d="M315.5 161v3.322c-35.252-13.105-77.027-13.658-120.586-1.292-4.799-13.288-10.336-26.208-16.242-38.759 30.269-11.443 86.933-37.653 94.869-69.214C299.197 82.926 315.5 120.209 315.5 161z"/></mask><path d="M315.5 161v3.322c-35.252-13.105-77.027-13.658-120.586-1.292-4.799-13.288-10.336-26.208-16.242-38.759 30.269-11.443 86.933-37.653 94.869-69.214C299.197 82.926 315.5 120.209 315.5 161z" fill="#EA4C89" mask="url(#f)" vector-effect="non-scaling-stroke" stroke-width=".8" stroke="#FFF"/><path d="M315.5 161v3.322c-35.252-13.105-77.027-13.658-120.586-1.292-4.799-13.288-10.336-26.208-16.242-38.759 30.269-11.443 86.933-37.653 94.869-69.214C299.197 82.926 315.5 120.209 315.5 161z" fill="#EA4C89"/></g></svg>