<?xml version="1.0" encoding="UTF-8" standalone="no"?><!-- Generator: Gravit.io --><svg xmlns="http://www.w3.org/2000/svg" xmlns:xlink="http://www.w3.org/1999/xlink" style="isolation:isolate" viewBox="0 0 321 321" width="321pt" height="321pt"><defs><clipPath id="_clipPath_e46eQZc9jKvaW6fLLNN6GwOAIeEB43OB"><rect width="321" height="321"/></clipPath></defs><g clip-path="url(#_clipPath_e46eQZc9jKvaW6fLLNN6GwOAIeEB43OB)"><g><circle vector-effect="non-scaling-stroke" cx="160.5" cy="160.49999999999997" r="160" fill="none"/><mask id="_mask_2IwrwGdUnabWNrJojNN1ZDTjxp10KO4j" x="-200%" y="-200%" width="400%" height="400%"><rect x="-200%" y="-200%" width="400%" height="400%" style="fill:white;"/><path d=" M 112.905 125.193 C 128.038 122.24 142.805 118.18 156.831 113.75 C 138.191 79.604 115.12 48.781 87.987 22.757 C 48.121 44.166 17.788 82.373 8.007 127.961 C 37.354 133.868 73.591 133.13 112.905 125.193 Z " fill="black" stroke="none"/></mask><path d=" M 112.905 125.193 C 128.038 122.24 142.805 118.18 156.831 113.75 C 138.191 79.604 115.12 48.781 87.987 22.757 C 48.121 44.166 17.788 82.373 8.007 127.961 C 37.354 133.868 73.591 133.13 112.905 125.193 Z " fill="rgb(234,76,137)" mask="url(#_mask_2IwrwGdUnabWNrJojNN1ZDTjxp10KO4j)" vector-effect="non-scaling-stroke" stroke-width="0.8" stroke="rgb(255,255,255)" stroke-linejoin="miter" stroke-linecap="butt" stroke-miterlimit="4"/><path d=" M 112.905 125.193 C 128.038 122.24 142.805 118.18 156.831 113.75 C 138.191 79.604 115.12 48.781 87.987 22.757 C 48.121 44.166 17.788 82.373 8.007 127.961 C 37.354 133.868 73.591 133.13 112.905 125.193 Z " fill="rgb(234,76,137)"/><path d=" M 261 42 C 261.127 41.972 261.476 43.927 260 49 C 255.321 65.075 218.355 90.602 173.32 107.399 L 171.289 108.137 C 167.414 100.938 163.353 93.739 159.108 86.91 C 143.235 60.702 124.224 36.523 102.999 15.114 C 120.348 8.285 139.359 3.978 159.108 3.978 C 194.36 3.978 227.214 16.406 253.423 36.154 C 255.453 37.631 259.423 40.712 261 42 Z " fill="rgb(234,76,137)" vector-effect="non-scaling-stroke" stroke-width="0.4" stroke="rgb(255,255,255)" stroke-linejoin="miter" stroke-linecap="butt" stroke-miterlimit="4"/><mask id="_mask_3izyMrva0wmcLzJUcsTlceZObVNZfd1D" x="-200%" y="-200%" width="400%" height="400%"><rect x="-200%" y="-200%" width="400%" height="400%" style="fill:white;"/><path d=" M 181.38 167.566 C 174.735 169.966 168.276 172.55 162 175.503 C 108.474 199.497 68.607 239.365 62.331 277.386 C 62.148 278.494 61.963 279.601 61.778 280.708 C 27.264 251.915 4.5 208.541 4.5 159.999 C 4.5 155.015 4.685 150.217 5.054 145.418 C 19.635 148.187 35.016 149.294 49.413 149.294 C 74.514 149.294 98.323 145.972 116.596 142.281 C 132.285 139.144 147.42 135.082 162.001 130.468 C 163.108 130.1 164.215 129.73 165.323 129.361 C 171.229 141.727 176.58 154.462 181.38 167.566 Z " fill="black" stroke="none"/></mask><path d=" M 181.38 167.566 C 174.735 169.966 168.276 172.55 162 175.503 C 108.474 199.497 68.607 239.365 62.331 277.386 C 62.148 278.494 61.963 279.601 61.778 280.708 C 27.264 251.915 4.5 208.541 4.5 159.999 C 4.5 155.015 4.685 150.217 5.054 145.418 C 19.635 148.187 35.016 149.294 49.413 149.294 C 74.514 149.294 98.323 145.972 116.596 142.281 C 132.285 139.144 147.42 135.082 162.001 130.468 C 163.108 130.1 164.215 129.73 165.323 129.361 C 171.229 141.727 176.58 154.462 181.38 167.566 Z " fill="rgb(234,76,137)" mask="url(#_mask_3izyMrva0wmcLzJUcsTlceZObVNZfd1D)" vector-effect="non-scaling-stroke" stroke-width="0.8" stroke="rgb(255,255,255)" stroke-linejoin="miter" stroke-linecap="butt" stroke-miterlimit="4"/><path d=" M 181.38 167.566 C 174.735 169.966 168.276 172.55 162 175.503 C 108.474 199.497 68.607 239.365 62.331 277.386 C 62.148 278.494 61.963 279.601 61.778 280.708 C 27.264 251.915 4.5 208.541 4.5 159.999 C 4.5 155.015 4.685 150.217 5.054 145.418 C 19.635 148.187 35.016 149.294 49.413 149.294 C 74.514 149.294 98.323 145.972 116.596 142.281 C 132.285 139.144 147.42 135.082 162.001 130.468 C 163.108 130.1 164.215 129.73 165.323 129.361 C 171.229 141.727 176.58 154.462 181.38 167.566 Z " fill="rgb(234,76,137)"/><mask id="_mask_AI1GvKO0NAUW71xDXSBOpY8TFgZUjemf" x="-200%" y="-200%" width="400%" height="400%"><rect x="-200%" y="-200%" width="400%" height="400%" style="fill:white;"/><path d=" M 206.773 308.056 C 192.377 312.485 176.873 315.5 161 315.5 C 131.284 315.5 103.414 306.579 79.788 292.182 C 78.866 287.752 78.866 283.138 79.605 278.339 C 84.403 248.993 117.627 215.771 161 193.991 C 169.121 189.93 177.612 186.053 186.471 182.916 C 199.021 222.415 206.035 264.681 206.773 308.056 Z " fill="black" stroke="none"/></mask><path d=" M 206.773 308.056 C 192.377 312.485 176.873 315.5 161 315.5 C 131.284 315.5 103.414 306.579 79.788 292.182 C 78.866 287.752 78.866 283.138 79.605 278.339 C 84.403 248.993 117.627 215.771 161 193.991 C 169.121 189.93 177.612 186.053 186.471 182.916 C 199.021 222.415 206.035 264.681 206.773 308.056 Z " fill="rgb(234,76,137)" mask="url(#_mask_AI1GvKO0NAUW71xDXSBOpY8TFgZUjemf)" vector-effect="non-scaling-stroke" stroke-width="0.8" stroke="rgb(255,255,255)" stroke-linejoin="miter" stroke-linecap="butt" stroke-miterlimit="4"/><path d=" M 206.773 308.056 C 192.377 312.485 176.873 315.5 161 315.5 C 131.284 315.5 103.414 306.579 79.788 292.182 C 78.866 287.752 78.866 283.138 79.605 278.339 C 84.403 248.993 117.627 215.771 161 193.991 C 169.121 189.93 177.612 186.053 186.471 182.916 C 199.021 222.415 206.035 264.681 206.773 308.056 Z " fill="rgb(234,76,137)"/><mask id="_mask_xaSwmGRuttU5C27YKwG8NTOoq64HYnCk" x="-200%" y="-200%" width="400%" height="400%"><rect x="-200%" y="-200%" width="400%" height="400%" style="fill:white;"/><path d=" M 313.838 181.332 C 306.087 235.412 270.219 280.631 221.862 302.227 C 220.569 259.406 213.187 217.693 200.82 178.38 C 242.164 166.937 281.355 168.229 313.838 181.332 Z " fill="black" stroke="none"/></mask><path d=" M 313.838 181.332 C 306.087 235.412 270.219 280.631 221.862 302.227 C 220.569 259.406 213.187 217.693 200.82 178.38 C 242.164 166.937 281.355 168.229 313.838 181.332 Z " fill="rgb(234,76,137)" mask="url(#_mask_xaSwmGRuttU5C27YKwG8NTOoq64HYnCk)" vector-effect="non-scaling-stroke" stroke-width="0.8" stroke="rgb(255,255,255)" stroke-linejoin="miter" stroke-linecap="butt" stroke-miterlimit="4"/><path d=" M 313.838 181.332 C 306.087 235.412 270.219 280.631 221.862 302.227 C 220.569 259.406 213.187 217.693 200.82 178.38 C 242.164 166.937 281.355 168.229 313.838 181.332 Z " fill="rgb(234,76,137)"/><mask id="_mask_UkEhBigfNAF9PCm7YZYvxZNaKh2WCZDJ" x="-200%" y="-200%" width="400%" height="400%"><rect x="-200%" y="-200%" width="400%" height="400%" style="fill:white;"/><path d=" M 315.5 161 L 315.5 164.322 C 280.248 151.217 238.473 150.664 194.914 163.03 C 190.115 149.742 184.578 136.822 178.672 124.271 C 208.941 112.828 265.605 86.618 273.541 55.057 C 299.197 82.926 315.5 120.209 315.5 161 Z " fill="black" stroke="none"/></mask><path d=" M 315.5 161 L 315.5 164.322 C 280.248 151.217 238.473 150.664 194.914 163.03 C 190.115 149.742 184.578 136.822 178.672 124.271 C 208.941 112.828 265.605 86.618 273.541 55.057 C 299.197 82.926 315.5 120.209 315.5 161 Z " fill="rgb(234,76,137)" mask="url(#_mask_UkEhBigfNAF9PCm7YZYvxZNaKh2WCZDJ)" vector-effect="non-scaling-stroke" stroke-width="0.8" stroke="rgb(255,255,255)" stroke-linejoin="miter" stroke-linecap="butt" stroke-miterlimit="4"/><path d=" M 315.5 161 L 315.5 164.322 C 280.248 151.217 238.473 150.664 194.914 163.03 C 190.115 149.742 184.578 136.822 178.672 124.271 C 208.941 112.828 265.605 86.618 273.541 55.057 C 299.197 82.926 315.5 120.209 315.5 161 Z " fill="rgb(234,76,137)"/></g></g></svg>